<svg width="21" height="20" viewBox="0 0 21 20" fill="none" xmlns="http://www.w3.org/2000/svg">
<path fill-rule="evenodd" clip-rule="evenodd" d="M18.141 9.99951C18.141 14.4178 14.5593 17.9995 10.141 17.9995C5.72271 17.9995 2.14099 14.4178 2.14099 9.99951C2.14099 5.58123 5.72271 1.99951 10.141 1.99951C14.5593 1.99951 18.141 5.58123 18.141 9.99951ZM11.141 5.99951C11.141 6.5518 10.6933 6.99951 10.141 6.99951C9.58871 6.99951 9.14099 6.5518 9.14099 5.99951C9.14099 5.44723 9.58871 4.99951 10.141 4.99951C10.6933 4.99951 11.141 5.44723 11.141 5.99951ZM9.14099 8.99951C8.58871 8.99951 8.14099 9.44723 8.14099 9.99951C8.14099 10.5518 8.58871 10.9995 9.14099 10.9995V13.9995C9.14099 14.5518 9.58871 14.9995 10.141 14.9995H11.141C11.6933 14.9995 12.141 14.5518 12.141 13.9995C12.141 13.4472 11.6933 12.9995 11.141 12.9995V9.99951C11.141 9.44723 10.6933 8.99951 10.141 8.99951H9.14099Z" fill="#1767AF"/>
</svg>
