<svg width="21" height="21" viewBox="0 0 21 21" fill="none" xmlns="http://www.w3.org/2000/svg">
<path fill-rule="evenodd" clip-rule="evenodd" d="M10.141 18.1084C14.5593 18.1084 18.141 14.5267 18.141 10.1084C18.141 5.69012 14.5593 2.1084 10.141 2.1084C5.72271 2.1084 2.14099 5.69012 2.14099 10.1084C2.14099 14.5267 5.72271 18.1084 10.141 18.1084ZM13.8481 8.81551C14.2386 8.42498 14.2386 7.79182 13.8481 7.40129C13.4576 7.01077 12.8244 7.01077 12.4339 7.40129L9.14099 10.6942L7.8481 9.40129C7.45757 9.01077 6.82441 9.01077 6.43388 9.40129C6.04336 9.79182 6.04336 10.425 6.43388 10.8155L8.43388 12.8155C8.82441 13.206 9.45757 13.206 9.8481 12.8155L13.8481 8.81551Z" fill="#2A9F27"/>
</svg>
