<svg width="21" height="21" viewBox="0 0 21 21" fill="none" xmlns="http://www.w3.org/2000/svg">
<path fill-rule="evenodd" clip-rule="evenodd" d="M8.39793 3.59882C9.16253 2.23952 11.1196 2.23952 11.8842 3.59882L17.4645 13.5194C18.2145 14.8526 17.251 16.4999 15.7214 16.4999H4.56077C3.03112 16.4999 2.06769 14.8526 2.81762 13.5194L8.39793 3.59882ZM11.141 13.5C11.141 14.0523 10.6933 14.5 10.141 14.5C9.58871 14.5 9.14099 14.0523 9.14099 13.5C9.14099 12.9477 9.58871 12.5 10.141 12.5C10.6933 12.5 11.141 12.9477 11.141 13.5ZM10.141 5.5C9.58871 5.5 9.14099 5.94772 9.14099 6.5V9.5C9.14099 10.0523 9.58871 10.5 10.141 10.5C10.6933 10.5 11.141 10.0523 11.141 9.5V6.5C11.141 5.94772 10.6933 5.5 10.141 5.5Z" fill="#FBBF24"/>
</svg>
